<svg version="1.1" id="Layer_1" xmlns="http://www.w3.org/2000/svg" x="0" y="0" viewBox="0 0 886.3 485.2" style="enable-background:new 0 0 886.3 485.2" xml:space="preserve"><style>.st0{fill:#dc3e6f}.st1{fill:#fff}</style><path class="st0" d="M253.3 51.1c-3.7 0-104.5 0-114.8-.2-10.3-.1-22.7-.2-37.2-.2-.2 15.3-.3 27.6-.4 36.9-.1 9.3-.1 21.3-.1 36 0 16.7.1 32.8.2 48.4s.2 27.1.3 34.7H58.1c.1-7.3.2-18.4.3-33.4s.1-31.6.1-49.8V89.1c0-9.5-.1-22.2-.3-38.3-14.3 0-27 0-38.3.2-11.1.1-17.8.1-19.9.1V11.2c6.8 0 17.9 0 33.3.1 15.4.1 30.8.1 46.1.1 17.7 0 34.6 0 50.7-.1s124.8-.2 128.2-.2l-5 40z"/><path class="st0" d="M357.5 108.9c0 14.8-2.5 28.4-7.5 40.9s-12.1 23.2-21.3 32.1c-8.6 8.5-18.4 14.8-29.1 18.9s-22.2 6.2-34.5 6.2-23.4-2-34.1-5.9c-10.7-3.9-20.1-9.8-28.5-17.7-9.4-8.9-16.7-19.7-22-32.4s-8-26.8-8-42.2c0-14.3 2.2-27.4 6.6-39.1 4.4-11.8 11.1-22.4 20.1-31.8 8.2-8.7 17.9-15.3 29.1-20s23.3-6.9 36.4-6.9c13.1 0 24.8 2.1 35.7 6.4S321 28 329.3 36.3c9.4 9.3 16.4 20.2 21 32.6s7.2 25.8 7.2 40z"/><path class="st1" d="M313 110.4c0-9.3-1.5-18.6-4.5-27.7s-7.5-16.8-13.6-22.8c-3.9-3.9-8.3-6.9-13.2-9.1-5-2.2-10.5-3.3-16.6-3.3s-11.6 1.1-16.6 3.4c-5.1 2.3-9.8 5.6-14 10-5.4 5.7-9.6 12.9-12.6 21.5s-4.5 17.5-4.5 26.6c0 10.1 1.5 19.3 4.5 27.7 3 8.4 7.4 15.4 13.2 21.2 3.9 3.9 8.4 7 13.5 9.3 5.2 2.3 10.7 3.5 16.8 3.5s11.3-1.1 16.5-3.3c5.1-2.2 9.7-5.4 13.8-9.6 5.3-5.4 9.6-12.2 12.8-20.6 2.9-8.5 4.5-17.4 4.5-26.8z"/><path class="st0" d="M551.3 10.9c0 18.2-.1 32.6-.2 43.2s-.2 20.2-.2 29c0 11.1 0 20.7.1 28.7 0 8.1.1 14.9.1 20.7 0 13.4-2 24.9-6.1 34.6-4 9.7-9.6 17.7-16.5 24.1-7.9 7.1-16.5 12.3-25.8 15.6-9.3 3.3-20.1 5-32.5 5-13.8 0-25.3-1.9-34.7-5.6s-17.4-8.9-24.2-15.4c-7.2-6.7-12.7-14.9-16.5-24.5-3.7-9.6-5.6-21.1-5.6-34.4 0-5.8 0-12.7.1-20.7 0-8.1.1-17.6.1-28.7 0-9.7-.1-19.4-.2-29.2s-.2-23.9-.2-42.2h43.2c-.1 8.3-.2 18.6-.3 31-.1 12.4-.1 26.3-.1 41.8 0 7.5 0 15 .1 22.4s.1 15.1.1 23c0 14.2 3.5 25 10.4 32.3 6.9 7.3 16.2 11 27.9 11 12.5 0 21.9-3.6 28.4-10.7s9.7-18 9.7-32.6c0-7.9 0-15.8.1-23.6 0-7.8.1-15.1.1-21.9 0-15.7-.1-29.8-.2-42.2-.1-12.4-.2-22.6-.2-30.6l43.1-.1zM721.3 206.8c-3.3 0-11.9-.1-25.7-.1-13.8-.1-27.2-.1-40-.1-10.3 0-20.3.1-30.1.1-9.8.1-19.3.1-28.5.1.1-17.3.2-35.9.3-55.9s.2-37.5.2-52.5c0-27.1-.1-48.8-.2-65-.1-16.3-.2-27.4-.3-33.4h43.4c-.1 12.5-.2 26.4-.3 41.7-.1 15.3-.1 29.6-.1 42.9 0 19.8 0 37.4.1 53s.1 24.6.1 26.9c3.9 0 8.4 0 13.4.1s9.6.1 13.6.1c11.5 0 22.7-.1 33.8-.1 11-.1 17.8-.1 20.3-.1v42.3zM362.9 376.4c0 15.8-2.7 30.3-8 43.6s-12.9 24.7-22.6 34.3c-9.2 9.1-19.5 15.8-30.9 20.2-11.4 4.4-23.6 6.6-36.6 6.6s-24.9-2.1-36.2-6.3c-11.3-4.2-21.4-10.5-30.2-18.8-9.9-9.5-17.7-21-23.4-34.6-5.7-13.6-8.5-28.6-8.5-45 0-15.3 2.3-29.2 7-41.7 4.7-12.5 11.8-23.9 21.4-33.9 8.7-9.3 19-16.4 30.9-21.3 11.9-4.9 24.8-7.4 38.7-7.4 13.9 0 26.3 2.3 38 6.9s21.9 11.3 30.7 20.2c9.9 10 17.4 21.5 22.4 34.8 4.8 13 7.3 27.3 7.3 42.4z"/><path class="st0" d="M315.5 378c0-9.9-1.6-19.8-4.7-29.6-3.2-9.8-8-17.9-14.5-24.3-4.1-4.1-8.8-7.4-14.1-9.7s-11.2-3.5-17.7-3.5-12.3 1.2-17.7 3.6c-5.4 2.4-10.4 6-14.9 10.7-5.8 6.1-10.2 13.8-13.4 22.9-3.2 9.2-4.8 18.7-4.8 28.4 0 10.7 1.6 20.6 4.8 29.5 3.2 9 7.9 16.5 14 22.6 4.1 4.1 8.9 7.4 14.4 9.9s11.4 3.7 17.8 3.7 12-1.2 17.5-3.5c5.4-2.4 10.3-5.8 14.7-10.2 5.7-5.7 10.2-13 13.6-22 3.3-9 5-18.5 5-28.5zM562.1 280.4c0 18.2-.1 36.6-.2 47.1s-.2 20.2-.2 29c0 11.1 0 20.7.1 28.7 0 8 .1 15 .1 20.7 0 13.4-2 24.9-6.1 34.6-4 9.7-9.6 17.7-16.5 24.1-7.9 7.1-16.5 12.3-25.8 15.6-9.3 3.3-20.1 5-32.5 5-13.8 0-25.3-1.9-34.7-5.6s-17.4-8.9-24.2-15.4c-7.2-6.7-12.7-14.9-16.5-24.5-3.7-9.6-5.6-21.1-5.6-34.5 0-5.8 0-12.6.1-20.7 0-8 .1-17.6.1-28.7 0-9.6-.1-19.4-.2-29.2s-.2-23.9-.2-42.2H443c-.1 8.3-.2 18.6-.3 31-.1 12.4-.1 26.3-.1 41.8 0 7.5 0 15 .1 22.5 0 7.5.1 15.1.1 23 0 14.2 3.5 25 10.4 32.3 6.9 7.3 16.2 11 27.9 11 12.5 0 21.9-3.6 28.4-10.7s9.7-18 9.7-32.6c0-7.9 0-15.8.1-23.6 0-7.9.1-15.1.1-21.9 0-15.7-.1-29.8-.2-42.2-.1-12.4-.2-26.6-.2-34.6h43.1zM722.4 417c0 10.7-2.5 20-7.5 27.7S703 458.9 694.4 464c-7.6 4.5-16.9 7.8-28 10-11.1 2.1-22.3 3.2-33.6 3.2-8.2 0-15.5-.2-22-.5s-10.8-.6-12.9-.8l-3.9-39.4c1 .2 5 .5 12 1s13.1.7 18.6.7c4.1 0 9.2-.4 15.3-1.2s11.2-1.9 15.3-3.2c5.5-1.9 9.3-4.2 11.6-7.1 2.2-2.9 3.3-6.4 3.3-10.6 0-4.7-1.2-8.6-3.7-11.8s-6.6-6.5-12.5-9.9c-3.7-2-8.6-4.6-14.8-7.8-6.2-3.1-11.6-6.2-16-9.4-8.5-5.8-14.7-12.2-18.3-19.5-3.7-7.2-5.5-15.2-5.5-24 0-7.5 1.4-14.3 4.1-20.3s6.4-11.1 10.9-15.4c6.9-7 16.2-12.4 28.1-16.2 11.8-3.8 25.8-5.7 41.9-5.7 7.7 0 14.3.1 19.8.4 5.5.2 9 .5 10.4.7l4.4 39.4c-2.2-.1-5.6-.4-10.3-.8-4.7-.4-10.6-.7-17.6-.7-4.9 0-9.6.4-14 1.2-4.5.8-8.8 2-12.9 3.5-3.8 1.4-6.9 3.4-9.1 6.1-2.2 2.7-3.3 6-3.3 10 0 3.6 1.2 7 3.7 10.2s6.7 6.6 12.8 10.2c4 2.2 8.7 4.7 14 7.5 5.3 2.7 10.6 5.8 15.7 9.1 8.3 5.5 14.5 11.9 18.5 19.2 3.9 7.1 5.9 15.5 6 24.9zM886.3 474.2c-3.1 0-11.7 0-25.9-.1s-28.3-.1-42.3-.1c-12.1 0-23.9 0-35.4.1s-19.8.1-25.1.1c.1-5.2.2-16.4.3-33.7.1-17.3.2-39.3.2-65.8 0-11.2 0-25.5-.1-42.9s-.2-35.1-.4-53.1c5.9 0 14.3 0 25.3.1 10.9 0 21.9.1 33 .1 15.1 0 29.8 0 44.3-.1 14.5 0 24.3-.1 26.2-.1v36.1c-1.5 0-8.8 0-18.7-.1-9.9-.1-19.9-.1-29.9-.1-5.8 0-12.6 0-20.4.1-7.8 0-13.8.1-18.3.1 0 7.3 0 15.1-.1 23.2s-.1 15.5-.1 22c4.5 0 10.3 0 17.3.1 7 0 12.8.1 17.3.1 11.2 0 21.8 0 31.5-.1s16-.1 18.7-.1v29.1c-1.7 0-8.5 0-20.2-.1s-21.6-.1-29.5-.1c-4.4 0-10.2 0-17.4.1-7.2 0-13.1.1-17.7.1 0 11.4 0 21.2.1 29.3 0 8.1.1 14.8.2 20 5.2.1 12.2.2 20.9.2s16.6.1 23.6.1c9.9 0 18.9 0 27-.1s13.3-.1 15.7-.1l-.1 35.7z"/><g style="enable-background:new"><path class="st1" d="M275.1 449.7c.8.1 1.8.3 2.9.4 1.1.1 2.3.3 3.6.4v.9c0 3.4-.4 6.5-1.3 9.2-.9 2.7-2.2 5-3.9 6.9-1.3 1.5-2.9 2.6-4.7 3.4-1.8.8-3.9 1.2-6.2 1.2-2.2 0-4.1-.4-5.9-1.2-1.7-.8-3.3-1.9-4.6-3.4-1.8-1.9-3.1-4.2-4-6.9-.9-2.8-1.4-5.7-1.4-8.9v-1c.7-.1 1.6-.2 2.8-.3 1.2-.1 2.4-.3 3.7-.5v1c0 1.2.1 2.6.4 4.3.3 1.7.7 3.1 1.3 4.3.8 1.7 1.9 3 3.2 4s2.8 1.4 4.5 1.4c1.7 0 3.2-.5 4.5-1.4 1.3-.9 2.3-2.2 3.2-3.9.7-1.3 1.1-2.8 1.4-4.5.3-1.7.4-3.1.4-4.3v-.6c0-.2.1-.2.1-.5zM250 419.4H269.4c2.1 0 4 .3 5.5 1 1.5.6 2.8 1.5 3.8 2.6 1.1 1.3 2 2.6 2.5 4.1.5 1.5.8 3.2.8 5.2 0 2.2-.3 4-.9 5.5-.6 1.5-1.4 2.8-2.5 3.9-1.1 1.2-2.4 2-3.9 2.6-1.5.6-3.4.9-5.5.9H250v-6.9H268.9c2.3 0 4-.6 5.1-1.7 1.2-1.1 1.7-2.6 1.7-4.4 0-2-.6-3.5-1.7-4.5s-2.9-1.5-5.2-1.5h-18.9v-6.8zM281.1 392.4v19.8c-2.6 0-5.4 0-8.4-.1H255c-2.4 0-4.1 0-5 .1v-6.9h24.9V392.4h6.2zM256.4 366.5v9.2c2.4 0 4.4 0 5.9.1h13.4c2.5 0 4.3 0 5.5-.1v6.9H256.4v9.3H250v-25.4h6.4zM250 337.3H269.4c2.1 0 4 .3 5.5 1 1.5.6 2.8 1.5 3.8 2.6 1.1 1.3 2 2.6 2.5 4.1.5 1.5.8 3.2.8 5.2 0 2.2-.3 4-.9 5.5-.6 1.5-1.4 2.8-2.5 3.9-1.1 1.2-2.4 2-3.9 2.6-1.5.6-3.4.9-5.5.9H250v-6.9H268.9c2.3 0 4-.6 5.1-1.7 1.2-1.1 1.7-2.6 1.7-4.4 0-2-.6-3.5-1.7-4.5s-2.9-1.5-5.2-1.5h-18.9v-6.8zM279 304.7l2.8 6.3c-.8.5-2.3 1.5-4.5 3s-5.5 3.8-10 6.9l-.5-.1c-.1-.5-.4-1.1-.8-1.8s-.9-1.4-1.4-1.9c-.6-.5-1.2-.9-1.8-1.2-.6-.3-1.5-.4-2.4-.4-.9 0-1.8.2-2.5.7-.7.4-1.3 1-1.7 1.8-.3.6-.5 1.3-.5 1.9s-.1 1.3-.1 1.9v1.3H281.3v6.9c-1.2 0-3 0-5.4-.1H260c-2.3 0-5.6 0-9.9.1v-6c0-2.1.1-3.9.2-5.4s.5-2.9 1-4.3c.7-1.9 1.8-3.4 3.2-4.3 1.4-.9 3-1.4 4.7-1.4 2 0 3.7.5 5.1 1.5 1.4 1 2.5 2 3.2 3h.1c2-1.4 4.1-3 6.2-4.6 1.9-1.6 3.7-2.9 5.2-3.8zM281.1 280.7v20.4c-.8 0-2.6 0-5.4-.1h-17.3c-2.8 0-5.6 0-8.5.1V281h5.7v13.6h7.2V281h4.6v13.5h7.9V280.6h5.8z"/></g></svg>