<?xml version="1.0" encoding="utf-8"?>
<!-- Generator: Adobe Illustrator 27.0.1, SVG Export Plug-In . SVG Version: 6.00 Build 0)  -->
<svg version="1.1" id="Layer_1" xmlns="http://www.w3.org/2000/svg" xmlns:xlink="http://www.w3.org/1999/xlink" x="0px" y="0px"
	 viewBox="0 0 886.3 485.2" style="enable-background:new 0 0 886.3 485.2;" xml:space="preserve">
<style type="text/css">
	.st0{fill:#DC3E6F;}
	.st1{fill:#FFFFFF;}
	.st2{enable-background:new    ;}
</style>
<path class="st0" d="M253.3,51.1c-3.7,0-104.5,0-114.8-0.2c-10.3-0.1-22.7-0.2-37.2-0.2c-0.2,15.3-0.3,27.6-0.4,36.9
	c-0.1,9.3-0.1,21.3-0.1,36c0,16.7,0.1,32.8,0.2,48.4s0.2,27.1,0.3,34.7H58.1c0.1-7.3,0.2-18.4,0.3-33.4s0.1-31.6,0.1-49.8V89.1
	c0-9.5-0.1-22.2-0.3-38.3c-14.3,0-27,0-38.3,0.2C8.8,51.1,2.1,51.1,0,51.1V11.2c6.8,0,17.9,0,33.3,0.1c15.4,0.1,30.8,0.1,46.1,0.1
	c17.7,0,34.6,0,50.7-0.1c16.1-0.1,124.8-0.2,128.2-0.2L253.3,51.1L253.3,51.1z"/>
<path class="st0" d="M357.5,108.9c0,14.8-2.5,28.4-7.5,40.9c-5,12.5-12.1,23.2-21.3,32.1c-8.6,8.5-18.4,14.8-29.1,18.9
	s-22.2,6.2-34.5,6.2s-23.4-2-34.1-5.9c-10.7-3.9-20.1-9.8-28.5-17.7c-9.4-8.9-16.7-19.7-22-32.4s-8-26.8-8-42.2
	c0-14.3,2.2-27.4,6.6-39.1c4.4-11.8,11.1-22.4,20.1-31.8c8.2-8.7,17.9-15.3,29.1-20s23.3-6.9,36.4-6.9c13.1,0,24.8,2.1,35.7,6.4
	s20.6,10.6,28.9,18.9c9.4,9.3,16.4,20.2,21,32.6S357.5,94.7,357.5,108.9L357.5,108.9z"/>
<path class="st1" d="M313,110.4c0-9.3-1.5-18.6-4.5-27.7s-7.5-16.8-13.6-22.8c-3.9-3.9-8.3-6.9-13.2-9.1c-5-2.2-10.5-3.3-16.6-3.3
	s-11.6,1.1-16.6,3.4c-5.1,2.3-9.8,5.6-14,10c-5.4,5.7-9.6,12.9-12.6,21.5c-3,8.6-4.5,17.5-4.5,26.6c0,10.1,1.5,19.3,4.5,27.7
	c3,8.4,7.4,15.4,13.2,21.2c3.9,3.9,8.4,7,13.5,9.3c5.2,2.3,10.7,3.5,16.8,3.5s11.3-1.1,16.5-3.3c5.1-2.2,9.7-5.4,13.8-9.6
	c5.3-5.4,9.6-12.2,12.8-20.6C311.4,128.7,313,119.8,313,110.4L313,110.4z"/>
<path class="st0" d="M551.3,10.9c0,18.2-0.1,32.6-0.2,43.2s-0.2,20.2-0.2,29c0,11.1,0,20.7,0.1,28.7c0,8.1,0.1,14.9,0.1,20.7
	c0,13.4-2,24.9-6.1,34.6c-4,9.7-9.6,17.7-16.5,24.1c-7.9,7.1-16.5,12.3-25.8,15.6c-9.3,3.3-20.1,5-32.5,5c-13.8,0-25.3-1.9-34.7-5.6
	s-17.4-8.9-24.2-15.4c-7.2-6.7-12.7-14.9-16.5-24.5c-3.7-9.6-5.6-21.1-5.6-34.4c0-5.8,0-12.7,0.1-20.7c0-8.1,0.1-17.6,0.1-28.7
	c0-9.7-0.1-19.4-0.2-29.2s-0.2-23.9-0.2-42.2h43.2c-0.1,8.3-0.2,18.6-0.3,31c-0.1,12.4-0.1,26.3-0.1,41.8c0,7.5,0,15,0.1,22.4
	s0.1,15.1,0.1,23c0,14.2,3.5,25,10.4,32.3c6.9,7.3,16.2,11,27.9,11c12.5,0,21.9-3.6,28.4-10.7c6.5-7.1,9.7-18,9.7-32.6
	c0-7.9,0-15.8,0.1-23.6c0-7.8,0.1-15.1,0.1-21.9c0-15.7-0.1-29.8-0.2-42.2c-0.1-12.4-0.2-22.6-0.2-30.6L551.3,10.9L551.3,10.9z"/>
<path class="st0" d="M721.3,206.8c-3.3,0-11.9-0.1-25.7-0.1c-13.8-0.1-27.2-0.1-40-0.1c-10.3,0-20.3,0.1-30.1,0.1
	c-9.8,0.1-19.3,0.1-28.5,0.1c0.1-17.3,0.2-35.9,0.3-55.9s0.2-37.5,0.2-52.5c0-27.1-0.1-48.8-0.2-65C597.2,17.1,597.1,6,597,0h43.4
	c-0.1,12.5-0.2,26.4-0.3,41.7C640,57,640,71.3,640,84.6c0,19.8,0,37.4,0.1,53s0.1,24.6,0.1,26.9c3.9,0,8.4,0,13.4,0.1
	s9.6,0.1,13.6,0.1c11.5,0,22.7-0.1,33.8-0.1c11-0.1,17.8-0.1,20.3-0.1L721.3,206.8L721.3,206.8z"/>
<path class="st0" d="M362.9,376.4c0,15.8-2.7,30.3-8,43.6s-12.9,24.7-22.6,34.3c-9.2,9.1-19.5,15.8-30.9,20.2
	c-11.4,4.4-23.6,6.6-36.6,6.6s-24.9-2.1-36.2-6.3c-11.3-4.2-21.4-10.5-30.2-18.8c-9.9-9.5-17.7-21-23.4-34.6
	c-5.7-13.6-8.5-28.6-8.5-45c0-15.3,2.3-29.2,7-41.7c4.7-12.5,11.8-23.9,21.4-33.9c8.7-9.3,19-16.4,30.9-21.3
	c11.9-4.9,24.8-7.4,38.7-7.4c13.9,0,26.3,2.3,38,6.9s21.9,11.3,30.7,20.2c9.9,10,17.4,21.5,22.4,34.8
	C360.4,347,362.9,361.3,362.9,376.4L362.9,376.4z"/>
<path class="st0" d="M315.5,378c0-9.9-1.6-19.8-4.7-29.6c-3.2-9.8-8-17.9-14.5-24.3c-4.1-4.1-8.8-7.4-14.1-9.7s-11.2-3.5-17.7-3.5
	s-12.3,1.2-17.7,3.6c-5.4,2.4-10.4,6-14.9,10.7c-5.8,6.1-10.2,13.8-13.4,22.9c-3.2,9.2-4.8,18.7-4.8,28.4c0,10.7,1.6,20.6,4.8,29.5
	c3.2,9,7.9,16.5,14,22.6c4.1,4.1,8.9,7.4,14.4,9.9c5.5,2.5,11.4,3.7,17.8,3.7s12-1.2,17.5-3.5c5.4-2.4,10.3-5.8,14.7-10.2
	c5.7-5.7,10.2-13,13.6-22C313.8,397.5,315.5,388,315.5,378L315.5,378z"/>
<path class="st0" d="M562.1,280.4c0,18.2-0.1,36.6-0.2,47.1s-0.2,20.2-0.2,29c0,11.1,0,20.7,0.1,28.7c0,8,0.1,15,0.1,20.7
	c0,13.4-2,24.9-6.1,34.6c-4,9.7-9.6,17.7-16.5,24.1c-7.9,7.1-16.5,12.3-25.8,15.6c-9.3,3.3-20.1,5-32.5,5c-13.8,0-25.3-1.9-34.7-5.6
	s-17.4-8.9-24.2-15.4c-7.2-6.7-12.7-14.9-16.5-24.5c-3.7-9.6-5.6-21.1-5.6-34.5c0-5.8,0-12.6,0.1-20.7c0-8,0.1-17.6,0.1-28.7
	c0-9.6-0.1-19.4-0.2-29.2s-0.2-23.9-0.2-42.2H443c-0.1,8.3-0.2,18.6-0.3,31c-0.1,12.4-0.1,26.3-0.1,41.8c0,7.5,0,15,0.1,22.5
	c0,7.5,0.1,15.1,0.1,23c0,14.2,3.5,25,10.4,32.3c6.9,7.3,16.2,11,27.9,11c12.5,0,21.9-3.6,28.4-10.7c6.5-7.1,9.7-18,9.7-32.6
	c0-7.9,0-15.8,0.1-23.6c0-7.9,0.1-15.1,0.1-21.9c0-15.7-0.1-29.8-0.2-42.2c-0.1-12.4-0.2-26.6-0.2-34.6L562.1,280.4L562.1,280.4z"/>
<path class="st0" d="M722.4,417c0,10.7-2.5,20-7.5,27.7S703,458.9,694.4,464c-7.6,4.5-16.9,7.8-28,10c-11.1,2.1-22.3,3.2-33.6,3.2
	c-8.2,0-15.5-0.2-22-0.5s-10.8-0.6-12.9-0.8l-3.9-39.4c1,0.2,5,0.5,12,1s13.1,0.7,18.6,0.7c4.1,0,9.2-0.4,15.3-1.2
	s11.2-1.9,15.3-3.2c5.5-1.9,9.3-4.2,11.6-7.1c2.2-2.9,3.3-6.4,3.3-10.6c0-4.7-1.2-8.6-3.7-11.8s-6.6-6.5-12.5-9.9
	c-3.7-2-8.6-4.6-14.8-7.8c-6.2-3.1-11.6-6.2-16-9.4c-8.5-5.8-14.7-12.2-18.3-19.5c-3.7-7.2-5.5-15.2-5.5-24c0-7.5,1.4-14.3,4.1-20.3
	s6.4-11.1,10.9-15.4c6.9-7,16.2-12.4,28.1-16.2c11.8-3.8,25.8-5.7,41.9-5.7c7.7,0,14.3,0.1,19.8,0.4c5.5,0.2,9,0.5,10.4,0.7
	l4.4,39.4c-2.2-0.1-5.6-0.4-10.3-0.8c-4.7-0.4-10.6-0.7-17.6-0.7c-4.9,0-9.6,0.4-14,1.2c-4.5,0.8-8.8,2-12.9,3.5
	c-3.8,1.4-6.9,3.4-9.1,6.1c-2.2,2.7-3.3,6-3.3,10c0,3.6,1.2,7,3.7,10.2s6.7,6.6,12.8,10.2c4,2.2,8.7,4.7,14,7.5
	c5.3,2.7,10.6,5.8,15.7,9.1c8.3,5.5,14.5,11.9,18.5,19.2C720.3,399.2,722.3,407.6,722.4,417L722.4,417z"/>
<path class="st0" d="M886.3,474.2c-3.1,0-11.7,0-25.9-0.1s-28.3-0.1-42.3-0.1c-12.1,0-23.9,0-35.4,0.1s-19.8,0.1-25.1,0.1
	c0.1-5.2,0.2-16.4,0.3-33.7c0.1-17.3,0.2-39.3,0.2-65.8c0-11.2,0-25.5-0.1-42.9c-0.1-17.4-0.2-35.1-0.4-53.1c5.9,0,14.3,0,25.3,0.1
	c10.9,0,21.9,0.1,33,0.1c15.1,0,29.8,0,44.3-0.1c14.5,0,24.3-0.1,26.2-0.1v36.1c-1.5,0-8.8,0-18.7-0.1c-9.9-0.1-19.9-0.1-29.9-0.1
	c-5.8,0-12.6,0-20.4,0.1c-7.8,0-13.8,0.1-18.3,0.1c0,7.3,0,15.1-0.1,23.2s-0.1,15.5-0.1,22c4.5,0,10.3,0,17.3,0.1
	c7,0,12.8,0.1,17.3,0.1c11.2,0,21.8,0,31.5-0.1s16-0.1,18.7-0.1v29.1c-1.7,0-8.5,0-20.2-0.1s-21.6-0.1-29.5-0.1
	c-4.4,0-10.2,0-17.4,0.1c-7.2,0-13.1,0.1-17.7,0.1c0,11.4,0,21.2,0.1,29.3c0,8.1,0.1,14.8,0.2,20c5.2,0.1,12.2,0.2,20.9,0.2
	s16.6,0.1,23.6,0.1c9.9,0,18.9,0,27-0.1s13.3-0.1,15.7-0.1L886.3,474.2L886.3,474.2z"/>
<g class="st2">
	<path class="st1" d="M275.1,449.7c0.8,0.1,1.8,0.3,2.9,0.4c1.1,0.1,2.3,0.3,3.6,0.4c0,0.1,0,0.3,0,0.4s0,0.3,0,0.5
		c0,3.4-0.4,6.5-1.3,9.2c-0.9,2.7-2.2,5-3.9,6.9c-1.3,1.5-2.9,2.6-4.7,3.4c-1.8,0.8-3.9,1.2-6.2,1.2c-2.2,0-4.1-0.4-5.9-1.2
		c-1.7-0.8-3.3-1.9-4.6-3.4c-1.8-1.9-3.1-4.2-4-6.9c-0.9-2.8-1.4-5.7-1.4-8.9c0-0.2,0-0.3,0-0.5s0-0.3,0-0.5
		c0.7-0.1,1.6-0.2,2.8-0.3c1.2-0.1,2.4-0.3,3.7-0.5c0,0.2,0,0.3,0,0.5c0,0.2,0,0.3,0,0.5c0,1.2,0.1,2.6,0.4,4.3
		c0.3,1.7,0.7,3.1,1.3,4.3c0.8,1.7,1.9,3,3.2,4s2.8,1.4,4.5,1.4c1.7,0,3.2-0.5,4.5-1.4c1.3-0.9,2.3-2.2,3.2-3.9
		c0.7-1.3,1.1-2.8,1.4-4.5c0.3-1.7,0.4-3.1,0.4-4.3c0-0.2,0-0.4,0-0.6S275.1,450,275.1,449.7z"/>
	<path class="st1" d="M250,419.4c2.9,0,5.2,0,6.9,0c1.7,0,3.2,0,4.6,0c1.8,0,3.3,0,4.6,0s2.4,0,3.3,0c2.1,0,4,0.3,5.5,1
		c1.5,0.6,2.8,1.5,3.8,2.6c1.1,1.3,2,2.6,2.5,4.1c0.5,1.5,0.8,3.2,0.8,5.2c0,2.2-0.3,4-0.9,5.5c-0.6,1.5-1.4,2.8-2.5,3.9
		c-1.1,1.2-2.4,2-3.9,2.6c-1.5,0.6-3.4,0.9-5.5,0.9c-0.9,0-2,0-3.3,0c-1.3,0-2.8,0-4.6,0c-1.5,0-3.1,0-4.6,0c-1.6,0-3.8,0-6.7,0
		v-6.9c1.3,0,3,0,4.9,0c2,0,4.2,0,6.7,0c1.2,0,2.4,0,3.6,0c1.2,0,2.4,0,3.7,0c2.3,0,4-0.6,5.1-1.7c1.2-1.1,1.7-2.6,1.7-4.4
		c0-2-0.6-3.5-1.7-4.5c-1.1-1-2.9-1.5-5.2-1.5c-1.3,0-2.5,0-3.8,0c-1.2,0-2.4,0-3.5,0c-2.5,0-4.7,0-6.7,0c-2,0-3.6,0-4.9,0V419.4z"
		/>
	<path class="st1" d="M281.1,392.4c0,0.5,0,1.9,0,4.1c0,2.2,0,4.3,0,6.4c0,1.6,0,3.2,0,4.8c0,1.6,0,3.1,0,4.5c-2.6,0-5.4,0-8.4-0.1
		c-3,0-5.7,0-7.9,0c-4.1,0-7.3,0-9.8,0c-2.4,0-4.1,0-5,0.1v-6.9c1.9,0,4,0,6.3,0s4.5,0,6.5,0c3,0,5.6,0,8,0s3.7,0,4.1,0
		c0-0.6,0-1.3,0-2.1s0-1.5,0-2.2c0-1.8,0-3.6,0-5.4c0-1.8,0-2.8,0-3.2H281.1z"/>
	<path class="st1" d="M256.4,366.5c0,0.6,0,1.7,0,3.3c0,1.6,0,3.6,0,5.9c2.4,0,4.4,0,5.9,0.1c1.5,0,3.4,0,5.7,0c2.7,0,5.2,0,7.7,0
		c2.5,0,4.3,0,5.5-0.1v6.9c-1.2,0-2.9,0-5.3,0s-5,0-7.9,0c-2.1,0-4,0-5.5,0s-3.5,0-6.1,0c0,2.3,0,4.3,0,6.1c0,1.8,0,2.8,0,3.2H250
		c0-1.1,0-2.8,0-5.3s0-4.9,0-7.3c0-2.8,0-5.5,0-8.1s0-4.1,0-4.7H256.4z"/>
	<path class="st1" d="M250,337.3c2.9,0,5.2,0,6.9,0c1.7,0,3.2,0,4.6,0c1.8,0,3.3,0,4.6,0s2.4,0,3.3,0c2.1,0,4,0.3,5.5,1
		c1.5,0.6,2.8,1.5,3.8,2.6c1.1,1.3,2,2.6,2.5,4.1c0.5,1.5,0.8,3.2,0.8,5.2c0,2.2-0.3,4-0.9,5.5c-0.6,1.5-1.4,2.8-2.5,3.9
		c-1.1,1.2-2.4,2-3.9,2.6c-1.5,0.6-3.4,0.9-5.5,0.9c-0.9,0-2,0-3.3,0c-1.3,0-2.8,0-4.6,0c-1.5,0-3.1,0-4.6,0c-1.6,0-3.8,0-6.7,0
		v-6.9c1.3,0,3,0,4.9,0c2,0,4.2,0,6.7,0c1.2,0,2.4,0,3.6,0s2.4,0,3.7,0c2.3,0,4-0.6,5.1-1.7c1.2-1.1,1.7-2.6,1.7-4.4
		c0-2-0.6-3.5-1.7-4.5c-1.1-1-2.9-1.5-5.2-1.5c-1.3,0-2.5,0-3.8,0c-1.2,0-2.4,0-3.5,0c-2.5,0-4.7,0-6.7,0c-2,0-3.6,0-4.9,0V337.3z"
		/>
	<path class="st1" d="M279,304.7l2.8,6.3c-0.8,0.5-2.3,1.5-4.5,3c-2.2,1.5-5.5,3.8-10,6.9l-0.5-0.1c-0.1-0.5-0.4-1.1-0.8-1.8
		c-0.4-0.7-0.9-1.4-1.4-1.9c-0.6-0.5-1.2-0.9-1.8-1.2c-0.6-0.3-1.5-0.4-2.4-0.4c-0.9,0-1.8,0.2-2.5,0.7c-0.7,0.4-1.3,1-1.7,1.8
		c-0.3,0.6-0.5,1.3-0.5,1.9s-0.1,1.3-0.1,1.9c0,0.4,0,0.7,0,0.9c0,0.2,0,0.3,0,0.4c1.8,0,3.7,0,5.7,0s3.7,0,5.2,0c2.5,0,5.3,0,8.3,0
		s5.2,0,6.5,0v6.9c-1.2,0-3,0-5.4-0.1c-2.4,0-5.9,0-10.6,0c-1.2,0-3,0-5.3,0s-5.6,0-9.9,0.1c0-0.4,0-1.2,0-2.5c0-1.3,0-2.4,0-3.5
		c0-2.1,0.1-3.9,0.2-5.4s0.5-2.9,1-4.3c0.7-1.9,1.8-3.4,3.2-4.3c1.4-0.9,3-1.4,4.7-1.4c2,0,3.7,0.5,5.1,1.5c1.4,1,2.5,2,3.2,3h0.1
		c2-1.4,4.1-3,6.2-4.6C275.7,306.9,277.5,305.6,279,304.7z"/>
	<path class="st1" d="M281.1,280.7c0,0.5,0,1.9,0,4.1c0,2.3,0,4.5,0,6.7c0,1.9,0,3.8,0,5.6c0,1.8,0,3.2,0,4c-0.8,0-2.6,0-5.4-0.1
		c-2.8,0-6.2,0-10.5,0c-1.8,0-4.1,0-6.8,0c-2.8,0-5.6,0-8.5,0.1c0-0.9,0-2.3,0-4s0-3.5,0-5.2c0-2.4,0-4.7,0-7s0-3.6,0-3.9h5.7
		c0,0.2,0,1.1,0,2.7c0,1.6,0,3.2,0,4.8c0,0.9,0,2,0,3.2c0,1.2,0,2.2,0,2.9c1.2,0,2.4,0,3.7,0c1.3,0,2.5,0,3.5,0c0-0.7,0-1.6,0-2.8
		c0-1.1,0-2,0-2.8c0-1.8,0-3.5,0-5c0-1.6,0-2.6,0-3h4.6c0,0.3,0,1.4,0,3.2s0,3.4,0,4.7c0,0.7,0,1.6,0,2.8c0,1.1,0,2.1,0,2.8
		c1.8,0,3.4,0,4.7,0c1.3,0,2.4,0,3.2,0c0-0.8,0-1.9,0-3.3c0-1.4,0-2.6,0-3.8c0-1.6,0-3,0-4.3c0-1.3,0-2.1,0-2.5H281.1z"/>
</g>
</svg>
