<svg version="1.1" id="Layer_1" xmlns="http://www.w3.org/2000/svg" x="0" y="0" viewBox="0 0 886.3 485.2" style="enable-background:new 0 0 886.3 485.2" xml:space="preserve"><style>.st0{fill:#dc3e6f}.st2{fill:#fff}</style><path class="st0" d="M622.4 242.1c0 36.7-6.3 70.3-18.6 101.2s-29.9 57.3-52.5 79.6c-21.4 21.1-45.3 36.7-71.7 46.9-26.5 10.2-54.8 15.3-85 15.3s-57.8-4.9-84-14.6c-26.2-9.8-49.7-24.4-70.1-43.6-23-22.1-41.1-48.8-54.3-80.3s-19.7-66.4-19.7-104.5c0-35.5 5.3-67.8 16.3-96.8s27.4-55.5 49.7-78.7c20.2-21.6 44.1-38.1 71.7-49.4C331.8 5.8 361.7 0 394 0s61.1 5.3 88.2 16c27.2 10.7 50.8 26.2 71.3 46.9 23 23.2 40.4 49.9 52 80.8 11.1 30.2 16.9 63.4 16.9 98.4z"/><path class="st0" d="M512.4 245.9c0-23-3.7-46-10.9-68.7-7.4-22.8-18.6-41.6-33.7-56.4-9.5-9.5-20.4-17.2-32.7-22.5-12.3-5.3-26-8.1-41.1-8.1-15.1 0-28.6 2.8-41.1 8.4-12.5 5.6-24.1 13.9-34.6 24.8-13.5 14.2-23.7 32-31.1 53.2-7.4 21.4-11.1 43.4-11.1 65.9 0 24.8 3.7 47.8 11.1 68.5 7.4 20.9 18.3 38.3 32.5 52.5 9.5 9.5 20.7 17.2 33.4 23 12.8 5.8 26.5 8.6 41.3 8.6 14.9 0 27.9-2.8 40.6-8.1 12.5-5.6 23.9-13.5 34.1-23.7 13.2-13.2 23.7-30.2 31.6-51.1 7.8-21.1 11.7-43.1 11.7-66.3z"/><g style="enable-background:new"><path class="st2" d="M418.6 412.3c1.9.2 4.2.7 6.7.9 2.6.2 5.3.7 8.4.9v2.1c0 7.9-.9 15.1-3 21.4-2.1 6.3-5.1 11.6-9.1 16-3 3.5-6.7 6-10.9 7.9-4.2 1.9-9.1 2.8-14.4 2.8-5.1 0-9.5-.9-13.7-2.8-3.9-1.9-7.7-4.4-10.7-7.9-4.2-4.4-7.2-9.8-9.3-16-2.1-6.5-3.3-13.2-3.3-20.7v-2.4c1.6-.2 3.7-.5 6.5-.7 2.8-.2 5.6-.7 8.6-1.2v2.4c0 2.8.2 6 .9 10 .7 3.9 1.6 7.2 3 10 1.9 3.9 4.4 7 7.4 9.3s6.5 3.3 10.4 3.3c3.9 0 7.4-1.2 10.4-3.3 3-2.1 5.3-5.1 7.4-9.1 1.6-3 2.6-6.5 3.3-10.4.7-3.9.9-7.2.9-10v-1.4c.3-.4.5-.4.5-1.1zM360.3 342h45.1c4.9 0 9.3.7 12.8 2.3 3.5 1.4 6.5 3.5 8.8 6 2.6 3 4.6 6 5.8 9.5s1.9 7.4 1.9 12.1c0 5.1-.7 9.3-2.1 12.8s-3.3 6.5-5.8 9.1c-2.6 2.8-5.6 4.6-9.1 6-3.5 1.4-7.9 2.1-12.8 2.1H360.2v-16h44c5.3 0 9.3-1.4 11.8-3.9 2.8-2.6 3.9-6 3.9-10.2 0-4.6-1.4-8.1-3.9-10.4s-6.7-3.5-12.1-3.5H360V342h.3zM432.5 279.3v45.9c-6 0-12.5 0-19.5-.2h-41.1c-5.6 0-9.5 0-11.6.2v-16h57.8v-29.9h14.4zM375.2 219.2v21.4c5.6 0 10.2 0 13.7.2H420c5.8 0 10 0 12.8-.2v16H375.2v21.6h-14.9v-58.9h14.9zM360.3 151.4h45.1c4.9 0 9.3.7 12.8 2.3 3.5 1.4 6.5 3.5 8.8 6 2.6 3 4.6 6 5.8 9.5s1.9 7.4 1.9 12.1c0 5.1-.7 9.3-2.1 12.8-1.4 3.5-3.3 6.5-5.8 9.1-2.6 2.8-5.6 4.6-9.1 6-3.5 1.4-7.9 2.1-12.8 2.1H360.2v-16h44c5.3 0 9.3-1.4 11.8-3.9 2.8-2.6 3.9-6 3.9-10.2 0-4.6-1.4-8.1-3.9-10.4s-6.7-3.5-12.1-3.5H360v-15.8h.3zM427.7 75.7l6.5 14.6c-1.9 1.2-5.3 3.5-10.4 7-5.1 3.5-12.8 8.8-23.2 16l-1.2-.2c-.2-1.2-.9-2.6-1.9-4.2-.9-1.6-2.1-3.3-3.3-4.4-1.4-1.2-2.8-2.1-4.2-2.8-1.4-.7-3.5-.9-5.6-.9-2.1 0-4.2.5-5.8 1.6-1.6.9-3 2.3-3.9 4.2-.7 1.4-1.2 3-1.2 4.4 0 1.4-.2 3-.2 4.4v3H433v16c-2.8 0-7 0-12.5-.2H383.6c-5.3 0-13 0-23 .2V120.5c0-4.9.2-9.1.5-12.5.2-3.5 1.2-6.7 2.3-10 1.6-4.4 4.2-7.9 7.4-10 3.3-2.1 7-3.3 10.9-3.3 4.6 0 8.6 1.2 11.8 3.5s5.8 4.6 7.4 7h.2c4.6-3.3 9.5-7 14.4-10.7 4.5-3.7 8.7-6.7 12.2-8.8zM432.5 20V67.4c-1.9 0-6 0-12.5-.2h-40.2c-6.5 0-13 0-19.7.2V20.6h13.2V52.1H390V20.5h10.7v31.3H419V19.5h13.5v.5z"/></g></svg>