<?xml version="1.0" encoding="utf-8"?>
<!-- Generator: Adobe Illustrator 27.0.1, SVG Export Plug-In . SVG Version: 6.00 Build 0)  -->
<svg version="1.1" id="Layer_1" xmlns="http://www.w3.org/2000/svg" xmlns:xlink="http://www.w3.org/1999/xlink" x="0px" y="0px"
	 viewBox="0 0 886.3 485.2" style="enable-background:new 0 0 886.3 485.2;" xml:space="preserve">
<style type="text/css">
	.st0{fill:#DC3E6F;}
	.st1{enable-background:new    ;}
	.st2{fill:#FFFFFF;}
</style>
<path class="st0" d="M622.4,242.1c0,36.7-6.3,70.3-18.6,101.2s-29.9,57.3-52.5,79.6c-21.4,21.1-45.3,36.7-71.7,46.9
	c-26.5,10.2-54.8,15.3-85,15.3s-57.8-4.9-84-14.6c-26.2-9.8-49.7-24.4-70.1-43.6c-23-22.1-41.1-48.8-54.3-80.3
	s-19.7-66.4-19.7-104.5c0-35.5,5.3-67.8,16.3-96.8s27.4-55.5,49.7-78.7c20.2-21.6,44.1-38.1,71.7-49.4C331.8,5.8,361.7,0,394,0
	c32.3,0,61.1,5.3,88.2,16c27.2,10.7,50.8,26.2,71.3,46.9c23,23.2,40.4,49.9,52,80.8C616.6,173.9,622.4,207.1,622.4,242.1
	L622.4,242.1z"/>
<path class="st0" d="M512.4,245.9c0-23-3.7-46-10.9-68.7c-7.4-22.8-18.6-41.6-33.7-56.4c-9.5-9.5-20.4-17.2-32.7-22.5
	c-12.3-5.3-26-8.1-41.1-8.1c-15.1,0-28.6,2.8-41.1,8.4c-12.5,5.6-24.1,13.9-34.6,24.8c-13.5,14.2-23.7,32-31.1,53.2
	c-7.4,21.4-11.1,43.4-11.1,65.9c0,24.8,3.7,47.8,11.1,68.5c7.4,20.9,18.3,38.3,32.5,52.5c9.5,9.5,20.7,17.2,33.4,23
	c12.8,5.8,26.5,8.6,41.3,8.6c14.9,0,27.9-2.8,40.6-8.1c12.5-5.6,23.9-13.5,34.1-23.7c13.2-13.2,23.7-30.2,31.6-51.1
	C508.5,291.1,512.4,269.1,512.4,245.9L512.4,245.9z"/>
<g class="st1">
	<path class="st2" d="M418.6,412.3c1.9,0.2,4.2,0.7,6.7,0.9c2.6,0.2,5.3,0.7,8.4,0.9c0,0.2,0,0.7,0,0.9c0,0.2,0,0.7,0,1.2
		c0,7.9-0.9,15.1-3,21.4c-2.1,6.3-5.1,11.6-9.1,16c-3,3.5-6.7,6-10.9,7.9c-4.2,1.9-9.1,2.8-14.4,2.8c-5.1,0-9.5-0.9-13.7-2.8
		c-3.9-1.9-7.7-4.4-10.7-7.9c-4.2-4.4-7.2-9.8-9.3-16c-2.1-6.5-3.3-13.2-3.3-20.7c0-0.5,0-0.7,0-1.2c0-0.5,0-0.7,0-1.2
		c1.6-0.2,3.7-0.5,6.5-0.7c2.8-0.2,5.6-0.7,8.6-1.2c0,0.5,0,0.7,0,1.2c0,0.5,0,0.7,0,1.2c0,2.8,0.2,6,0.9,10c0.7,3.9,1.6,7.2,3,10
		c1.9,3.9,4.4,7,7.4,9.3s6.5,3.3,10.4,3.3c3.9,0,7.4-1.2,10.4-3.3c3-2.1,5.3-5.1,7.4-9.1c1.6-3,2.6-6.5,3.3-10.4
		c0.7-3.9,0.9-7.2,0.9-10c0-0.5,0-0.9,0-1.4C418.4,413,418.6,413,418.6,412.3z"/>
	<path class="st2" d="M360.3,342c6.7,0,12.1,0,16,0c3.9,0,7.4,0,10.7,0c4.2,0,7.7,0,10.7,0s5.6,0,7.7,0c4.9,0,9.3,0.7,12.8,2.3
		c3.5,1.4,6.5,3.5,8.8,6c2.6,3,4.6,6,5.8,9.5s1.9,7.4,1.9,12.1c0,5.1-0.7,9.3-2.1,12.8s-3.3,6.5-5.8,9.1c-2.6,2.8-5.6,4.6-9.1,6
		c-3.5,1.4-7.9,2.1-12.8,2.1c-2.1,0-4.6,0-7.7,0c-3,0-6.5,0-10.7,0c-3.5,0-7.2,0-10.7,0c-3.7,0-8.8,0-15.6,0v-16c3,0,7,0,11.4,0
		c4.6,0,9.8,0,15.6,0c2.8,0,5.6,0,8.4,0c2.8,0,5.6,0,8.6,0c5.3,0,9.3-1.4,11.8-3.9c2.8-2.6,3.9-6,3.9-10.2c0-4.6-1.4-8.1-3.9-10.4
		s-6.7-3.5-12.1-3.5c-3,0-5.8,0-8.8,0c-2.8,0-5.6,0-8.1,0c-5.8,0-10.9,0-15.6,0c-4.6,0-8.4,0-11.4,0V342H360.3z"/>
	<path class="st2" d="M432.5,279.3c0,1.2,0,4.4,0,9.5s0,10,0,14.9c0,3.7,0,7.4,0,11.1c0,3.7,0,7.2,0,10.4c-6,0-12.5,0-19.5-0.2
		c-7,0-13.2,0-18.3,0c-9.5,0-16.9,0-22.8,0c-5.6,0-9.5,0-11.6,0.2v-16c4.4,0,9.3,0,14.6,0c5.3,0,10.4,0,15.1,0c7,0,13,0,18.6,0
		s8.6,0,9.5,0c0-1.4,0-3,0-4.9s0-3.5,0-5.1c0-4.2,0-8.4,0-12.5c0-4.2,0-6.5,0-7.4L432.5,279.3L432.5,279.3z"/>
	<path class="st2" d="M375.2,219.2c0,1.4,0,3.9,0,7.7c0,3.7,0,8.4,0,13.7c5.6,0,10.2,0,13.7,0.2c3.5,0,7.9,0,13.2,0
		c6.3,0,12.1,0,17.9,0s10,0,12.8-0.2v16c-2.8,0-6.7,0-12.3,0c-5.6,0-11.6,0-18.3,0c-4.9,0-9.3,0-12.8,0s-8.1,0-14.2,0
		c0,5.3,0,10,0,14.2c0,4.2,0,6.5,0,7.4h-14.9c0-2.6,0-6.5,0-12.3s0-11.4,0-16.9c0-6.5,0-12.8,0-18.8s0-9.5,0-10.9H375.2z"/>
	<path class="st2" d="M360.3,151.4c6.7,0,12.1,0,16,0c3.9,0,7.4,0,10.7,0c4.2,0,7.7,0,10.7,0s5.6,0,7.7,0c4.9,0,9.3,0.7,12.8,2.3
		c3.5,1.4,6.5,3.5,8.8,6c2.6,3,4.6,6,5.8,9.5s1.9,7.4,1.9,12.1c0,5.1-0.7,9.3-2.1,12.8c-1.4,3.5-3.3,6.5-5.8,9.1
		c-2.6,2.8-5.6,4.6-9.1,6c-3.5,1.4-7.9,2.1-12.8,2.1c-2.1,0-4.6,0-7.7,0c-3,0-6.5,0-10.7,0c-3.5,0-7.2,0-10.7,0c-3.7,0-8.8,0-15.6,0
		v-16c3,0,7,0,11.4,0c4.6,0,9.8,0,15.6,0c2.8,0,5.6,0,8.4,0c2.8,0,5.6,0,8.6,0c5.3,0,9.3-1.4,11.8-3.9c2.8-2.6,3.9-6,3.9-10.2
		c0-4.6-1.4-8.1-3.9-10.4s-6.7-3.5-12.1-3.5c-3,0-5.8,0-8.8,0c-2.8,0-5.6,0-8.1,0c-5.8,0-10.9,0-15.6,0c-4.6,0-8.4,0-11.4,0v-15.8
		H360.3z"/>
	<path class="st2" d="M427.7,75.7l6.5,14.6c-1.9,1.2-5.3,3.5-10.4,7c-5.1,3.5-12.8,8.8-23.2,16l-1.2-0.2c-0.2-1.2-0.9-2.6-1.9-4.2
		c-0.9-1.6-2.1-3.3-3.3-4.4c-1.4-1.2-2.8-2.1-4.2-2.8c-1.4-0.7-3.5-0.9-5.6-0.9c-2.1,0-4.2,0.5-5.8,1.6c-1.6,0.9-3,2.3-3.9,4.2
		c-0.7,1.4-1.2,3-1.2,4.4c0,1.4-0.2,3-0.2,4.4c0,0.9,0,1.6,0,2.1c0,0.5,0,0.7,0,0.9c4.2,0,8.6,0,13.2,0s8.6,0,12.1,0
		c5.8,0,12.3,0,19.3,0s12.1,0,15.1,0v16c-2.8,0-7,0-12.5-0.2c-5.6,0-13.7,0-24.6,0c-2.8,0-7,0-12.3,0c-5.3,0-13,0-23,0.2
		c0-0.9,0-2.8,0-5.8s0-5.6,0-8.1c0-4.9,0.2-9.1,0.5-12.5c0.2-3.5,1.2-6.7,2.3-10c1.6-4.4,4.2-7.9,7.4-10c3.3-2.1,7-3.3,10.9-3.3
		c4.6,0,8.6,1.2,11.8,3.5s5.8,4.6,7.4,7h0.2c4.6-3.3,9.5-7,14.4-10.7C420,80.8,424.2,77.8,427.7,75.7z"/>
	<path class="st2" d="M432.5,20c0,1.2,0,4.4,0,9.5c0,5.3,0,10.4,0,15.6c0,4.4,0,8.8,0,13c0,4.2,0,7.4,0,9.3c-1.9,0-6,0-12.5-0.2
		c-6.5,0-14.4,0-24.4,0c-4.2,0-9.5,0-15.8,0c-6.5,0-13,0-19.7,0.2c0-2.1,0-5.3,0-9.3s0-8.1,0-12.1c0-5.6,0-10.9,0-16.3s0-8.4,0-9.1
		h13.2c0,0.5,0,2.6,0,6.3s0,7.4,0,11.1c0,2.1,0,4.6,0,7.4c0,2.8,0,5.1,0,6.7c2.8,0,5.6,0,8.6,0c3,0,5.8,0,8.1,0c0-1.6,0-3.7,0-6.5
		c0-2.6,0-4.6,0-6.5c0-4.2,0-8.1,0-11.6c0-3.7,0-6,0-7h10.7c0,0.7,0,3.3,0,7.4s0,7.9,0,10.9c0,1.6,0,3.7,0,6.5c0,2.6,0,4.9,0,6.5
		c4.2,0,7.9,0,10.9,0c3,0,5.6,0,7.4,0c0-1.9,0-4.4,0-7.7s0-6,0-8.8c0-3.7,0-7,0-10s0-4.9,0-5.8h13.5V20z"/>
</g>
</svg>
